<svg xmlns="http://www.w3.org/2000/svg" viewBox="0 0 1100 620" width="1100" height="620" role="img" aria-label="Placeholder browser mockup">
<style>
  .chrome { fill: #f4f4f4 } .win { fill: #ffffff } .ph { fill: #e6e6e6 }
  .hair { stroke: #efefef; stroke-width: 1 } .url { fill: #ffffff; stroke: #e6e6e6 }
  .rail { fill: #fafafa }
  @media (prefers-color-scheme: dark) {
    .chrome { fill: #1b1b1b } .win { fill: #101010 } .ph { fill: #272727 }
    .hair { stroke: #1e1e1e } .url { fill: #161616; stroke: #262626 } .rail { fill: #141414 }
  }
</style>
<rect class="win" width="1100" height="620" rx="14"/>
<path class="chrome" d="M0 14a14 14 0 0 1 14-14h1072a14 14 0 0 1 14 14v58H0z"/>
<circle cx="34" cy="36" r="7" fill="#ff5f57"/><circle cx="58" cy="36" r="7" fill="#febc2e"/><circle cx="82" cy="36" r="7" fill="#28c840"/>
<rect class="url" x="120" y="22" width="860" height="28" rx="14"/>
<rect class="rail" x="0" y="72" width="56" height="548"/>
  <rect class="ph" x="96" y="150" width="180" height="14" rx="7"/>
  <rect class="ph" x="96" y="178" width="120" height="14" rx="7"/>
  <rect class="ph" x="360" y="150" width="150" height="14" rx="7"/>
  <rect class="ph" x="360" y="178" width="190" height="14" rx="7"/>
  <rect class="ph" x="624" y="150" width="130" height="14" rx="7"/>
  <rect class="ph" x="624" y="178" width="100" height="14" rx="7"/>
  <rect class="ph" x="96" y="300" width="170" height="14" rx="7"/>
  <rect class="ph" x="300" y="300" width="120" height="14" rx="7"/>
  <rect class="ph" x="470" y="300" width="200" height="14" rx="7"/>
  <line class="hair" x1="72" y1="334" x2="1028" y2="334"/>
  <rect class="ph" x="96" y="354" width="170" height="14" rx="7"/>
  <rect class="ph" x="300" y="354" width="120" height="14" rx="7"/>
  <rect class="ph" x="470" y="354" width="200" height="14" rx="7"/>
  <line class="hair" x1="72" y1="388" x2="1028" y2="388"/>
  <rect class="ph" x="96" y="408" width="170" height="14" rx="7"/>
  <rect class="ph" x="300" y="408" width="120" height="14" rx="7"/>
  <rect class="ph" x="470" y="408" width="200" height="14" rx="7"/>
  <line class="hair" x1="72" y1="442" x2="1028" y2="442"/>
  <rect class="ph" x="96" y="462" width="170" height="14" rx="7"/>
  <rect class="ph" x="300" y="462" width="120" height="14" rx="7"/>
  <rect class="ph" x="470" y="462" width="200" height="14" rx="7"/>
  <line class="hair" x1="72" y1="496" x2="1028" y2="496"/>
</svg>
